PathFileType	4	(X/Y/Z)	C:\Users\WrightLab\Desktop\Jo\P3_12.trc
DataRate	CameraRate	NumFrames	NumMarkers	Units	OrigDataRate	OrigDataStartFrame	OrigNumFrames
100.00	100.00	       27	19	mm	100.00	445	       593
Frame#	Time	Headset_Front			Headset_Back			Headset_Left			Headset_Right			Left_Shoulder			Right_Shoulder			Sternum			C7			Left Elbow			Right Elbow			Left Wrist			Right Wrist			Left ASIS			Right ASIS			S2			Left Knee			Right Knee			Left Ankle			Right Ankle			
		X1	Y1	Z1	X2	Y2	Z2	X3	Y3	Z3	X4	Y4	Z4	X5	Y5	Z5	X6	Y6	Z6	X7	Y7	Z7	X8	Y8	Z8	X9	Y9	Z9	X10	Y10	Z10	X11	Y11	Z11	X12	Y12	Z12	X13	Y13	Z13	X14	Y14	Z14	X15	Y15	Z15	X16	Y16	Z16	X17	Y17	Z17	X18	Y18	Z18	X19	Y19	Z19	

445	4.440	-687.42224	1363.10083	-1061.10059				-715.66553	1544.86694	-1213.18066				-826.52448	1305.86182	-1190.12268	-515.07971	1328.00720	-1020.76563	-609.01337	1197.98438	-1223.78430				-905.22589	977.48444	-1212.80505	-437.78687	989.31927	-952.66394	-872.33099	795.13538	-1311.81274	-377.31699	798.76581	-1065.02466							-680.50720	911.50574	-987.76746				-441.98859	435.49182	-1225.35706				-523.40106	128.48900	-1098.33704	
446	4.450	-685.78766	1362.18579	-1067.42908				-712.46582	1544.58643	-1220.40930				-822.88983	1305.30981	-1199.51685	-514.00635	1327.85742	-1027.73669	-605.45276	1197.16882	-1230.00452				-902.37390	977.29999	-1223.57117	-437.43759	989.63721	-957.94836	-866.99463	795.61462	-1323.31592	-375.74420	799.21057	-1068.89111							-680.16534	911.31689	-993.75842				-439.64517	435.47226	-1230.73352				-516.12012	121.98554	-1117.37000	
447	4.460	-686.85413	1362.90771	-1074.74097				-709.21338	1544.24805	-1228.14526				-819.54425	1305.28113	-1208.24158	-511.19019	1327.60742	-1027.70129	-601.56012	1196.83118	-1236.10962				-898.91827	976.95892	-1234.94177	-437.31314	989.10175	-962.76129	-861.51147	795.81873	-1334.61438	-373.69666	799.49133	-1076.01465							-679.34637	911.15900	-1002.15765				-436.37241	435.18719	-1235.75671				-508.13177	115.92754	-1139.27600	
448	4.470	-683.22217	1361.51831	-1083.05408				-705.88776	1543.60376	-1234.66345				-815.61548	1304.52197	-1217.51807	-511.33142	1326.27344	-1039.48108	-597.78973	1196.31702	-1242.99963				-895.28540	976.58478	-1245.50867	-435.78387	989.73828	-966.61218	-855.83917	796.26001	-1345.90234	-371.76248	798.35065	-1078.77917							-677.88593	910.45569	-1007.90540				-437.23209	434.50064	-1241.33777				-502.25400	109.57479	-1160.96643	
449	4.480	-681.30878	1361.39258	-1090.05164				-702.47424	1543.02917	-1242.29248				-812.07947	1303.73450	-1226.04370	-508.35559	1326.35706	-1039.75525	-593.94354	1195.37769	-1249.27893				-891.97388	976.23370	-1256.32849	-434.28787	987.39532	-971.34204	-850.42780	796.23877	-1357.12122	-369.53427	796.65283	-1081.24475							-677.32257	910.35590	-1014.34564				-435.69940	432.92792	-1245.05298				-494.88919	103.42978	-1184.23743	
450	4.490	-679.26880	1360.63757	-1097.25427				-699.04480	1542.33606	-1249.03955				-807.99066	1302.95691	-1235.27246	-506.55588	1325.54333	-1045.69885	-590.02942	1194.44324	-1255.56641				-887.77295	975.11426	-1267.08435	-433.95151	987.06433	-975.94135	-844.67163	796.55164	-1368.58215	-368.09119	796.54553	-1085.31799							-675.05060	909.78577	-1020.72095				-433.62436	432.00443	-1248.27747				-487.05426	97.67231	-1205.86487	
451	4.500	-677.56097	1359.62793	-1104.36108				-695.59973	1541.44604	-1255.83838				-804.38879	1301.74866	-1243.13257	-505.10095	1324.54187	-1051.40112	-586.14880	1193.28662	-1261.95032				-883.73383	974.50781	-1277.83533	-433.78162	986.38892	-980.38013				-365.62790	795.91156	-1090.23145							-673.34906	909.50146	-1027.89001				-433.51089	429.93625	-1251.60229				-477.83173	94.89645	-1224.96643	
452	4.510	-673.19409	1357.68555	-1110.79810				-692.05408	1540.34863	-1262.68994				-800.79156	1301.07495	-1251.95837	-503.01855	1323.59192	-1057.39514	-582.04083	1192.44226	-1268.22290				-880.08112	973.56439	-1287.64246	-430.35168	985.20807	-982.76996				-363.89999	794.90631	-1094.34766							-671.09460	907.74738	-1034.76294				-431.69162	427.43115	-1254.07678				-470.82767	91.38313	-1244.95959	
453	4.520	-670.92145	1356.86743	-1118.10669										-796.66382	1299.47644	-1259.85938	-500.84106	1321.88025	-1062.97583	-577.90839	1191.20935	-1274.15845				-875.29840	972.73834	-1298.27698	-430.57306	984.06891	-989.71893				-361.59702	794.74420	-1100.30640							-669.40594	907.18549	-1040.55750				-430.70425	424.82104	-1256.11682				-463.83469	86.15360	-1266.31311	
454	4.530	-669.51099	1355.95081	-1125.44507										-792.33289	1298.20679	-1267.51868	-498.41257	1321.28601	-1068.97693							-870.47107	971.09546	-1307.90833	-429.33823	983.03076	-991.17334				-359.49768	792.87201	-1102.96729							-667.06317	906.48535	-1048.31714				-429.62955	421.74606	-1258.34668				-454.92645	86.15389	-1283.64136	
455	4.540	-666.46570	1354.73120	-1131.76184										-788.12988	1296.54907	-1275.73022	-495.92850	1319.54883	-1074.12085							-865.14813	969.83759	-1318.54175	-427.83350	980.48761	-997.82770				-356.90942	791.47351	-1108.22827							-664.89594	904.06793	-1055.67578				-429.01227	419.02377	-1261.64612				-448.43942	85.18760	-1299.86951	
456	4.550	-662.09027	1352.59949	-1137.66528										-784.27838	1295.15222	-1283.35840	-493.61212	1317.83801	-1080.17200							-860.69043	968.72809	-1328.54529	-426.14536	978.70325	-1001.91803				-354.62466	790.69562	-1113.94299							-662.50842	902.70490	-1061.81128				-428.67148	416.27432	-1264.22656				-438.96292	84.78384	-1314.79016	
457	4.560	-661.36389	1351.77734	-1145.69409										-780.26245	1294.41626	-1290.78772	-490.54282	1316.66809	-1085.71362							-855.45892	967.35510	-1338.20093	-424.74384	978.10553	-1006.66467				-352.32501	788.95612	-1118.28003							-659.21234	902.17950	-1069.37805				-427.32751	414.05832	-1269.36182				-432.45993	85.18459	-1327.82605	
458	4.570	-657.20789	1348.91321	-1150.38818										-775.92303	1292.62952	-1297.86719	-487.18726	1314.55383	-1090.83521							-850.15027	966.15570	-1347.63232	-423.07040	975.10809	-1011.42059				-350.00519	786.83588	-1121.94543							-655.77985	900.68164	-1075.91406				-427.02347	411.65875	-1272.72253				-425.14331	84.87466	-1339.72693	
459	4.580	-653.63470	1348.19397	-1157.24390										-771.28522	1291.90527	-1307.16382	-484.49283	1312.67920	-1096.01050							-844.53119	964.61011	-1356.48535	-421.59628	972.85681	-1018.42010				-347.71628	785.35864	-1127.04761							-651.71289	898.20929	-1082.73926				-425.80209	411.00775	-1276.59399				-418.30515	84.15743	-1352.65967	
460	4.590	-649.76575	1346.95483	-1163.69128										-766.84094	1289.89392	-1313.03613	-481.20697	1311.07507	-1101.28247							-838.99860	962.91223	-1365.20728	-419.65170	972.08661	-1022.04126				-345.20563	783.50793	-1132.29468							-649.06494	896.83026	-1089.39819				-423.82178	409.81525	-1281.66345				-413.84781	84.76566	-1359.25610	
461	4.600	-643.32092	1344.28015	-1168.87805										-763.07385	1288.62598	-1319.35962	-477.54120	1309.23010	-1106.48291							-831.76129	962.43311	-1377.24475	-416.55759	969.47516	-1026.93884				-342.31406	780.96509	-1136.36707							-645.45416	894.70251	-1096.09717				-423.01495	406.35001	-1286.31445				-409.08655	84.01820	-1367.72217	
462	4.610	-638.71075	1342.52478	-1174.53149										-758.45825	1286.63684	-1324.96521	-473.85126	1307.01086	-1111.84839							-826.84125	959.98785	-1383.29211	-415.13882	967.18469	-1032.15442				-339.89862	778.79364	-1141.15894							-641.80139	893.82745	-1104.04102				-419.82288	405.10397	-1290.76050				-406.54843	82.99991	-1372.95459	
463	4.620	-642.69122	1343.48230	-1181.22559										-753.75269	1284.63281	-1330.49988	-470.39285	1305.04626	-1116.88879							-820.54102	958.73828	-1391.77600	-411.82755	965.00592	-1037.46936				-337.08578	776.08929	-1146.16846							-638.08557	891.62421	-1111.19324				-417.77240	402.88440	-1296.91553				-403.20758	79.93271	-1378.51123	
464	4.630	-637.89673	1341.43262	-1186.68713										-748.90161	1283.58435	-1338.02234	-466.48627	1303.16101	-1121.90955							-813.09369	958.87421	-1404.31543	-410.03036	962.19073	-1043.09790				-334.49219	774.79462	-1152.57373							-634.19287	889.76379	-1119.27002				-413.02997	401.28455	-1301.74792				-402.00238	76.77281	-1380.26501	
465	4.640	-633.15039	1339.29382	-1192.15295										-743.36890	1282.95557	-1347.20325	-462.58530	1301.22314	-1127.16089							-806.68262	956.89240	-1411.21594	-407.31094	960.77734	-1048.35486				-331.38583	772.12555	-1157.19873							-631.70032	888.11334	-1126.26636				-408.59448	398.81912	-1308.84851				-402.04889	72.70590	-1382.38672	
466	4.650	-628.20465	1337.53662	-1198.07190										-738.39600	1281.90369	-1354.61572	-458.80844	1299.83521	-1132.43140							-800.24664	955.34021	-1418.76624	-404.87122	957.21362	-1054.16785				-328.19244	768.75806	-1160.79065							-628.98444	886.79156	-1132.92139				-404.57251	396.30853	-1315.81763				-400.40891	68.85185	-1386.72131	
467	4.660	-624.78333	1336.65649	-1204.09619										-733.47260	1279.97168	-1359.68201	-454.75946	1297.72571	-1136.78613							-793.64941	953.77966	-1426.29895	-403.22632	956.31744	-1060.32349				-325.67096	766.83093	-1166.18762							-624.58582	884.57239	-1141.78113				-400.26105	395.86060	-1320.00586				-397.44193	68.05553	-1386.53882	
468	4.670													-729.32410	1278.88159	-1365.21057	-450.83499	1295.52722	-1141.36951							-786.83301	952.27686	-1433.48999	-397.86108	953.86536	-1065.45618				-322.14963	764.13507	-1170.58276							-620.60895	883.88873	-1150.19995				-396.55301	393.84634	-1327.19348				-394.07242	67.35577	-1390.87183	
469	4.680													-724.33801	1277.07495	-1369.84741	-446.95193	1294.08630	-1146.00366							-780.30481	951.16986	-1441.21838	-394.33444	951.73486	-1071.23438				-319.02087	763.05231	-1177.75732							-617.80023	882.80579	-1157.73010				-391.35962	394.11917	-1329.20007				-391.74271	68.52908	-1390.84888	
470	4.690													-718.50439	1278.56909	-1382.50452	-443.41876	1292.74939	-1150.76147							-773.15497	950.31396	-1448.64941	-391.09943	950.19440	-1076.35303				-315.91760	761.35419	-1182.79871							-615.02911	881.83099	-1165.08740				-387.15982	394.82367	-1335.20740				-389.66446	64.47842	-1399.33899	
471	4.700													-713.82428	1277.33752	-1386.83813	-439.81320	1291.81726	-1154.77588							-766.10291	949.40137	-1455.57727	-389.05997	948.89655	-1082.62964				-312.03058	759.70972	-1188.06067							-611.86664	881.72211	-1173.63257				-381.84204	397.79694	-1341.53381				-387.59631	64.08083	-1403.51807	
